<svg width="100.000000" height="35.000000" viewBox="0 0 100 35" fill="none" xmlns="http://www.w3.org/2000/svg" xmlns:xlink="http://www.w3.org/1999/xlink">
	<desc>
			Created with Pixso.
	</desc>
	<defs/>
	<rect id="Rectangle 2" rx="6.000000" width="100.000000" height="35.000000" fill="#46A358" fill-opacity="1.000000"/>
	<path id="Login" d="M71.12 13.24C70.48 13.24 69.97 12.76 69.97 12.14C69.97 11.52 70.48 11.02 71.12 11.02C71.75 11.02 72.26 11.52 72.26 12.14C72.26 12.76 71.75 13.24 71.12 13.24ZM48.85 22.92L42.32 22.92L42.32 12.36L44.02 12.36L44.02 21.4L48.85 21.4L48.85 22.92ZM54.03 23.1C51.77 23.15 49.84 21.21 49.89 18.99C49.84 16.73 51.77 14.86 54.03 14.89C56.32 14.84 58.25 16.76 58.21 18.99C58.25 21.21 56.32 23.15 54.03 23.1ZM66.29 16.19L66.29 15.07L67.84 15.07L67.84 22.11C67.84 24.59 66.29 25.98 63.91 25.98C62.36 25.98 61.08 25.37 60.13 24.49L61.06 23.32C61.94 24.03 62.74 24.44 63.81 24.44C65.24 24.44 66.16 23.68 66.16 22.2L66.16 21.64C65.57 22.36 64.6 22.76 63.51 22.76C61.32 22.76 59.68 21.12 59.68 18.83C59.68 16.54 61.33 14.89 63.51 14.89C64.71 14.89 65.72 15.37 66.29 16.19ZM78.3 14.89C80.14 14.89 81.25 16.14 81.25 18.01L81.25 22.92L79.57 22.92L79.57 18.24C79.57 17.15 78.88 16.41 77.85 16.41C76.81 16.41 76.06 17.16 76.06 18.24L76.06 22.92L74.38 22.92L74.38 15.07L75.95 15.07L75.95 15.84C76.54 15.21 77.33 14.89 78.3 14.89ZM71.95 22.92L70.27 22.92L70.27 15.07L71.95 15.07L71.95 22.92ZM65.48 20.65C65.94 20.22 66.18 19.61 66.18 18.81C66.18 17.21 65.11 16.4 63.81 16.4C63.12 16.4 62.56 16.62 62.1 17.07C61.64 17.52 61.41 18.11 61.41 18.83C61.41 19.56 61.64 20.16 62.1 20.62C62.56 21.07 63.12 21.29 63.81 21.29C64.47 21.29 65.01 21.08 65.48 20.65ZM54.03 21.55C55.42 21.55 56.48 20.43 56.48 19C56.48 17.55 55.41 16.43 54.05 16.43C52.65 16.43 51.6 17.55 51.6 19C51.6 20.46 52.65 21.55 54.03 21.55Z" fill="#FFFFFF" fill-opacity="1.000000" fill-rule="evenodd"/>
	<rect id="Iconly/Curved/Logout" rx="0.000000" width="19.000000" height="19.000000" transform="translate(17.500000 7.500000)" fill="#FFFFFF" fill-opacity="0"/>
	<path id="Stroke 1" d="M35.15 17.1L25.12 17.1" stroke="#FFFFFF" stroke-opacity="1.000000" stroke-width="1.500000" stroke-linejoin="round" stroke-linecap="round"/>
	<path id="Stroke 3" d="M32.72 14.67L35.16 17.1L32.72 19.53" stroke="#FFFFFF" stroke-opacity="1.000000" stroke-width="1.500000" stroke-linejoin="round" stroke-linecap="round"/>
	<path id="Stroke 4" d="M30.63 13.35C30.35 10.37 29.24 9.29 24.79 9.29C18.88 9.29 18.88 11.21 18.88 16.99C18.88 22.78 18.88 24.7 24.79 24.7C29.24 24.7 30.35 23.62 30.63 20.64" stroke="#FFFFFF" stroke-opacity="1.000000" stroke-width="1.500000" stroke-linejoin="round" stroke-linecap="round"/>
</svg>
